# xmcd
#
# Track frame offsets: 
#        150
#        4223
#        22366
#        23788
#        39303
#        60047
#        84946
#        102443
#        105495
#        126263
#        148275
#        166667
#        187041
#        209898
#        211021
#        227387
#        231538
#        250317
#        270723
#        273164
#        293443
#
# Disc length: 3951 seconds
#
# Revision: 1
# Processed by: cddbd v1.5.2PL0 Copyright (c) Steve Scherf et al.
# Submitted via: ExactAudioCopy v1.3
#
DISCID=250f6d15
DTITLE=N’Pan$ - Черная Сторона Легального Бизне$$а
DYEAR=2001
DGENRE=Rap
TTITLE0=Intro feat. Жорик
TTITLE1=Меньше Слов feat. Batista
TTITLE2=Слово Негр Умерло
TTITLE3=Не Называй Меня Негр
TTITLE4=Приключения
TTITLE5=Перемена feat. Viola
TTITLE6=Подстава
TTITLE7=Боже, Дай Мне Силы (Skit)
TTITLE8=Тор Тор (Я Буду Жить) feat. ШЕFF
TTITLE9=Мечта feat. Анна
TTITLE10=Будь Со Мной feat. Е. Осин
TTITLE11=Я Устал feat. Deinekin
TTITLE12=Я Живу feat. Batista and DA 108
TTITLE13=Cote Obscur (Skit) feat. Augusten
TTITLE14=Кто Сказал feat. ШЕFF and ДеЦл
TTITLE15=Мы Говорим Сердцем (Skit) feat. Лига
TTITLE16=4 My Liga
TTITLE17=Уличные Псы feat. ДеЦл
TTITLE18=Давайте Будем Братьями (Skit) feat. ШEFF
TTITLE19=Продолжайте В Том Же Духе
TTITLE20=Мой Мир (Outro)
EXTD=
EXTT0=
EXTT1=
EXTT2=
EXTT3=
EXTT4=
EXTT5=
EXTT6=
EXTT7=
EXTT8=
EXTT9=
EXTT10=
EXTT11=
EXTT12=
EXTT13=
EXTT14=
EXTT15=
EXTT16=
EXTT17=
EXTT18=
EXTT19=
EXTT20=
PLAYORDER=
